<?xml version="1.0" encoding="UTF-8"?>
<svg width="15px" height="30px" viewBox="0 0 15 30" version="1.1" xmlns="http://www.w3.org/2000/svg" xmlns:xlink="http://www.w3.org/1999/xlink">
    <title>facebook</title>
    <g id="Symbols" stroke="none" stroke-width="1" fill="none" fill-rule="evenodd">
        <g id="Marketing-/-Content-Blocks-/-Footer-(Dark)" transform="translate(-747.000000, -132.000000)" fill="#FFFFFF">
            <g id="Follow-Us" transform="translate(609.000000, 65.000000)">
                <g id="Group" transform="translate(0.000000, 67.000000)">
                    <path d="M138.478939,15.9781452 L141.733806,15.9781452 L141.733806,29.516129 C141.733806,29.7835887 141.94849,30 142.212745,30 L147.731675,30 C147.996408,30 148.210613,29.7835887 148.210613,29.516129 L148.210613,16.0418952 L151.952322,16.0418952 C152.195982,16.0418952 152.400489,15.8571774 152.428506,15.6133065 L152.996767,10.6290726 C153.012213,10.4920161 152.969228,10.3545968 152.878469,10.2515323 C152.78771,10.1489516 152.6572,10.0899194 152.521061,10.0899194 L148.210613,10.0899194 L148.210613,6.96556452 C148.210613,6.02383065 148.71302,5.54612903 149.702627,5.54612903 L152.521061,5.54612903 C152.785316,5.54612903 153,5.32971774 153,5.06225806 L153,0.487620968 C153,0.22016129 152.785316,0.00375 152.521061,0.00375 L148.637228,0.00375 C148.609569,0.00241935484 148.548864,0 148.459422,0 C147.785555,0 145.443186,0.133669355 143.592926,1.85322581 C141.542949,3.75895161 141.827798,6.0408871 141.896046,6.43633065 L141.896046,10.0899194 L138.478939,10.0899194 C138.214205,10.0899194 138,10.3063306 138,10.5737903 L138,15.4942742 C138,15.76125 138.214205,15.9781452 138.478939,15.9781452 Z" id="facebook"></path>
                </g>
            </g>
        </g>
    </g>
</svg>