<?xml version="1.0" encoding="UTF-8"?>
<svg width="28px" height="26px" viewBox="0 0 28 26" version="1.1" xmlns="http://www.w3.org/2000/svg" xmlns:xlink="http://www.w3.org/1999/xlink">
    <title>linkedin-logo</title>
    <g id="Symbols" stroke="none" stroke-width="1" fill="none" fill-rule="evenodd">
        <g id="Marketing-/-Content-Blocks-/-Footer-(Dark)" transform="translate(-609.000000, -134.000000)" fill="#FFFFFF">
            <g id="Follow-Us" transform="translate(609.000000, 65.000000)">
                <g id="Group" transform="translate(0.000000, 67.000000)">
                    <path d="M28,18.1122 L28,28 L21.9978889,28 L21.9978889,18.7752 C21.9978889,16.4582286 21.1306667,14.8766857 18.9583333,14.8766857 C17.2993333,14.8766857 16.3135,15.9415714 15.8791111,16.9730286 C15.7212222,17.3414857 15.68,17.8536857 15.68,18.3703429 L15.68,28 L9.67672222,28 C9.67672222,28 9.75722222,12.3751143 9.67672222,10.7575429 L15.68,10.7575429 L15.68,13.2008 C15.6679444,13.2197429 15.6512222,13.2386857 15.6407222,13.2572571 L15.68,13.2572571 L15.68,13.2008 C16.4776111,12.0285714 17.9009444,10.3526857 21.0894444,10.3526857 C25.0393889,10.3526857 28,12.8163714 28,18.1122 Z M3.39655556,2.44534286 C1.34283333,2.44534286 0,3.73234286 0,5.4242 C0,7.07965714 1.30472222,8.40417143 3.31761111,8.40417143 L3.35727778,8.40417143 C5.45066667,8.40417143 6.75227778,7.07965714 6.75227778,5.4242 C6.713,3.73234286 5.45066667,2.44534286 3.39655556,2.44534286 Z M0.357,28 L6.35755556,28 L6.35755556,10.7575429 L0.357,10.7575429 L0.357,28 Z" id="linkedin-logo"></path>
                </g>
            </g>
        </g>
    </g>
</svg>