<?xml version="1.0" encoding="UTF-8"?> <svg xmlns="http://www.w3.org/2000/svg" width="24" height="24"><g stroke-width="2" fill="none" fill-rule="evenodd" stroke-linecap="round" stroke-linejoin="round"><path stroke="#1976D2" d="M4 9l5-5M20.643 1l-4.125 2.946-.354 3.889 3.89-.353L23 3.357zM16.165 7.835L12 12"></path><path stroke="#0C3B69" d="M14.329 19.329l1.207 1.207L22.5 22.5l-1.964-6.964-3.207-3.207M11.672 6.671L7.036 2.035a3.535 3.535 0 10-5 5l2.636 2.636M1.825 22.175h0c-1.1-1.1-1.1-2.9 0-4L8 12c1.1-1.1 2.9-1.1 4 0s1.1 2.9 0 4l-6.175 6.175c-1.1 1.1-2.9 1.1-4 0z"></path></g></svg> 