<?xml version="1.0" encoding="UTF-8"?> <svg xmlns="http://www.w3.org/2000/svg" width="35" height="35"><path d="M32.373 24.364l-4.076-4.004a2.859 2.859 0 00-3.993 0l-3.381 3.32c-4.242-1.741-7.641-5.08-9.415-9.246l3.38-3.32a2.74 2.74 0 000-3.922l-4.076-4.004a2.86 2.86 0 00-3.994 0L4.88 5.09a8.295 8.295 0 00-2.317 7.558c1.984 9.983 10.012 17.868 20.177 19.818 2.794.535 5.683-.3 7.696-2.277l1.937-1.903a2.739 2.739 0 000-3.923z" stroke="#0C3B69" stroke-width="3" fill="none" fill-rule="evenodd" stroke-linecap="round" stroke-linejoin="round"></path></svg> 