<?xml version="1.0" encoding="UTF-8"?>
<svg width="46px" height="46px" viewBox="0 0 46 46" version="1.1" xmlns="http://www.w3.org/2000/svg" xmlns:xlink="http://www.w3.org/1999/xlink">
    <title>service/phone</title>
    <g id="Landing-pages----Landlords-&amp;-products" stroke="none" stroke-width="1" fill="none" fill-rule="evenodd" stroke-linecap="round" stroke-linejoin="round">
        <g id="MP_landlords_landing_page" transform="translate(-316.000000, -3962.000000)" stroke="#0C3B69" stroke-width="4">
            <g id="contact" transform="translate(0.000000, 3764.000000)">
                <g id="content" transform="translate(165.000000, 60.000000)">
                    <g id="Group-2" transform="translate(0.000000, 139.000000)">
                        <g id="Group" transform="translate(152.000000, 0.000000)">
                            <g id="phone" transform="translate(1.840000, 1.833333)">
                                <path d="M39.39348,29.3190333 L34.0354,23.9803667 C32.58732,22.5357 30.2358,22.5357 28.78772,23.9803667 L24.34412,28.4078667 C18.76892,26.0850333 14.3014,21.6337 11.97012,16.0787 L16.41372,11.6512 C17.8618,10.2065333 17.8618,7.86536667 16.41372,6.42253333 L11.05564,1.08386667 C9.60572,-0.3608 7.25604,-0.3608 5.80612,1.08386667 L3.25956,3.6212 C0.6118,6.25753333 -0.50324,10.0397 0.21436,13.6990333 C2.82164,27.0090333 13.3722,37.5232 26.73244,40.1228667 C30.40508,40.8360333 34.201,39.7232 36.84692,37.0868667 L39.39348,34.5495333 C40.8434,33.1048667 40.8434,30.7637 39.39348,29.3190333 Z" id="Stroke"></path>
                            </g>
                        </g>
                    </g>
                </g>
            </g>
        </g>
    </g>
</svg>