<?xml version="1.0" encoding="UTF-8"?> <svg xmlns="http://www.w3.org/2000/svg" width="29" height="29"><path d="M23.377 21.099l5.151 5.15a1.611 1.611 0 01-2.278 2.28l-5.151-5.152a13.012 13.012 0 01-8.031 2.759C5.85 26.136 0 20.286 0 13.068 0 5.85 5.85 0 13.068 0c7.217 0 13.068 5.85 13.068 13.068 0 3.028-1.03 5.815-2.759 8.031zm-3.21-1.21a9.813 9.813 0 002.747-6.821c0-5.438-4.408-9.846-9.846-9.846S3.222 7.63 3.222 13.068s4.408 9.846 9.846 9.846a9.813 9.813 0 006.821-2.746 1.627 1.627 0 01.279-.279z" fill="#0C3B69" fill-rule="evenodd"></path></svg> 