<svg xmlns="http://www.w3.org/2000/svg" width="44" height="40" viewBox="0 0 44 40">
    <g fill="none" fill-rule="evenodd" stroke-linecap="round" stroke-linejoin="round" stroke-width="4">
        <path stroke="#0C3B69" d="M33 36.364v-2.955c0-5.389-5.756-9.773-12.833-9.773-7.076 0-12.833 4.384-12.833 9.773v2.955" transform="translate(1.833 1.818)"/>
        <path stroke="#1976D2" d="M1.834 24.744C.67 26.215 0 27.935 0 29.774v4.772M38.5 24.744c1.165 1.471 1.834 3.191 1.834 5.03v4.772" transform="translate(1.833 1.818)"/>
        <path stroke="#0C3B69" d="M20.167 16.364c4.549 0 8.25-3.671 8.25-8.182C28.417 3.67 24.716 0 20.167 0c-4.548 0-8.25 3.67-8.25 8.182 0 4.51 3.702 8.182 8.25 8.182z" transform="translate(1.833 1.818)"/>
        <path stroke="#1976D2" d="M33.387 16.325c2.855-.199 5.113-2.535 5.113-5.417 0-2.074-1.182-3.86-2.904-4.778M6.948 16.325c-2.854-.2-5.115-2.535-5.115-5.417 0-2.074 1.184-3.86 2.904-4.778" transform="translate(1.833 1.818)"/>
    </g>
</svg>
