<?xml version="1.0" encoding="UTF-8"?> <svg xmlns="http://www.w3.org/2000/svg" width="24" height="22"><g stroke-width="2" fill="none" fill-rule="evenodd" stroke-linecap="round" stroke-linejoin="round"><path d="M19 21v-1.625C19 16.411 15.86 14 12 14s-7 2.411-7 5.375V21" stroke="#0C3B69"></path><path d="M2 14.61c-.635.808-1 1.754-1 2.765V20M22 14.61c.635.808 1 1.754 1 2.765V20" stroke="#1976D2"></path><path d="M12 10c2.481 0 4.5-2.019 4.5-4.5S14.481 1 12 1a4.505 4.505 0 00-4.5 4.5C7.5 7.981 9.52 10 12 10z" stroke="#0C3B69"></path><path d="M19.211 9.979a2.99 2.99 0 002.79-2.98 2.983 2.983 0 00-1.585-2.627M4.79 9.979A2.991 2.991 0 012 6.998c0-1.14.646-2.122 1.584-2.627" stroke="#1976D2"></path></g></svg> 