<?xml version="1.0" encoding="UTF-8"?>
<svg width="30px" height="26px" viewBox="0 0 30 26" version="1.1" xmlns="http://www.w3.org/2000/svg" xmlns:xlink="http://www.w3.org/1999/xlink">
    <title>twitter</title>
    <g id="Symbols" stroke="none" stroke-width="1" fill="none" fill-rule="evenodd">
        <g id="Marketing-/-Content-Blocks-/-Footer-(Dark)" transform="translate(-677.000000, -134.000000)" fill="#FFFFFF">
            <g id="Follow-Us" transform="translate(609.000000, 65.000000)">
                <g id="Group" transform="translate(0.000000, 67.000000)">
                    <path d="M97.5228699,5.02460628 C96.8563169,5.33256149 96.1643832,5.57551154 95.4543831,5.75139885 C96.2367217,4.97682407 96.8249385,4.00799594 97.1567887,2.92660908 C97.251509,2.6178918 96.9296794,2.35093633 96.662122,2.51623077 C95.6743975,3.12665422 94.610458,3.58458612 93.49978,3.8774522 C93.435341,3.89444651 93.3688539,3.90305798 93.3021474,3.90305798 C93.0998336,3.90305798 92.9031518,3.8247927 92.7484541,3.6827416 C91.5667542,2.59762056 90.0469137,2 88.4689977,2 C87.7862068,2 87.0968331,2.11088216 86.4199669,2.32959818 C84.3228079,3.00731301 82.7046631,4.80970065 82.1969769,7.03344051 C82.0065122,7.86753348 81.9549464,8.70238852 82.0435958,9.51476231 C82.0537627,9.6081167 82.0114128,9.67327426 81.9853007,9.70383354 C81.93944,9.75740753 81.8744158,9.78811922 81.8069047,9.78811922 C81.799371,9.78811922 81.7916178,9.78773819 81.7839378,9.78697611 C77.1933306,9.34260917 73.0537237,7.0383178 70.127634,3.29865493 C69.9784221,3.10790713 69.6922863,3.13130289 69.5733556,3.34384608 C69.0003526,4.36807719 68.6975401,5.53954152 68.6975401,6.73158192 C68.6975401,8.55843223 69.4019813,10.2800397 70.6255922,11.5351039 C70.1110305,11.4079895 69.6129992,11.2077919 69.1503691,10.9400744 C68.9265512,10.8105213 68.6511674,10.9770351 68.6480223,11.243762 C68.6159856,13.9576696 70.1410192,16.3725383 72.4255708,17.4599455 C72.3795638,17.4610887 72.3335568,17.4616221 72.2874766,17.4616221 C71.9253451,17.4616221 71.5586788,17.4251948 71.1977907,17.353331 C70.9457396,17.3031864 70.7339903,17.5523092 70.8122534,17.8069191 C71.5537782,20.2189681 73.5470739,21.9968931 75.9324167,22.4005651 C73.9527256,23.7851823 71.6473282,24.5155566 69.2478688,24.5155566 L68.4998343,24.5150994 C68.2693604,24.5150994 68.0744341,24.6716299 68.0157002,24.9042157 C67.957844,25.133296 68.0644135,25.3749505 68.260949,25.4940631 C70.9647568,27.1335188 74.0488356,28 77.1811157,28 C79.9228848,28 82.4875744,27.4330911 84.8040164,26.3151246 C86.92758,25.2902076 88.8041393,23.8251151 90.3815434,21.960542 C91.8509883,20.2236168 93.0000664,18.2185167 93.796741,16.0010259 C94.5561858,13.8872537 94.9575952,11.6318114 94.9575952,9.47848745 L94.9575952,9.37591193 C94.957522,9.03015772 95.1076117,8.70482717 95.369464,8.48336768 C96.363113,7.64279706 97.2283958,6.65331665 97.9411753,5.54243741 C98.1293725,5.24911409 97.8325578,4.88148828 97.5228699,5.02460628" id="twitter"></path>
                </g>
            </g>
        </g>
    </g>
</svg>