<?xml version="1.0" encoding="UTF-8"?>
<svg width="30px" height="22px" viewBox="0 0 30 22" version="1.1" xmlns="http://www.w3.org/2000/svg" xmlns:xlink="http://www.w3.org/1999/xlink">
    <title>youtube</title>
    <g id="Symbols" stroke="none" stroke-width="1" fill="none" fill-rule="evenodd">
        <g id="Marketing-/-Content-Blocks-/-Footer-(Dark)" transform="translate(-802.000000, -136.000000)" fill="#FFFFFF">
            <g id="Follow-Us" transform="translate(609.000000, 65.000000)">
                <g id="Group" transform="translate(0.000000, 67.000000)">
                    <path d="M221.830484,5.83933759 C220.747944,4.53285663 218.748589,4 214.930121,4 L201.069395,4 C197.163952,4 195.130605,4.56735725 194.051815,5.95818672 C193,7.31451555 193,9.31309624 193,12.0789168 L193,17.3502685 C193,22.7083015 194.247903,25.4285714 201.069395,25.4285714 L214.930121,25.4285714 C218.241613,25.4285714 220.076452,24.9585772 221.263508,23.8056915 C222.480685,22.6229708 223,20.6925319 223,17.3502685 L223,12.0789168 C223,9.16195649 222.91871,7.15195745 221.830484,5.83933759 Z M212.260363,15.4424208 L205.96629,18.7808781 C205.825363,18.8556499 205.671371,18.8926061 205.517742,18.8926061 C205.343911,18.8926061 205.16996,18.845091 205.016452,18.7506747 C204.726734,18.5727693 204.55,18.253792 204.55,17.9103819 L204.55,11.2544624 C204.55,10.9115433 204.726371,10.5930571 205.015484,10.4151518 C205.304718,10.2367553 205.663871,10.2247231 205.963871,10.3829839 L212.257944,13.6999551 C212.577903,13.8687748 212.779194,14.2040816 212.779678,14.5704513 C212.780161,14.9368209 212.579718,15.2726188 212.260363,15.4424208 Z" id="youtube"></path>
                </g>
            </g>
        </g>
    </g>
</svg>